PathFileType	4	(X/Y/Z)	Walk8.trc
DataRate	CameraRate	NumFrames	NumMarkers	Units	OrigDataRate	OrigDataStartFrame	OrigNumFrames
200.000000	200.000000	4	61	mm	200.000000	544	735
Frame#	Times		RCAR		LToe		LMT5		RWRR		LTB4		LMT1		LTB1		LTB3		RWRU		LLFC		RACR1		LUA1		LFA1		LElbow		STRN		LCAR		RFHD		RTH3		LACR1		LASI		LWRU		RTB2		RLFC		C7		LPSI		LWRR		RToe		RMT1		RMT5		LFHD		RPSI		LMFC		RMFC		CLAV		RTH2		RTB1		LTH3		RTB4		RTB3		LTH2		RCAL		LTH1		RASI		LTH4		RFA1		LTB2		RLMAL		RMMAL		LBHD		RBHD		RElbow		RUA1		RTH4		RBack		LMMAL		RTH1		LCAL		T10		LElbowM		LLMAL		RElbowM
			X1	Y1	Z1	X2	Y2	Z2	X3	Y3	Z3	X4	Y4	Z4	X5	Y5	Z5	X6	Y6	Z6	X7	Y7	Z7	X8	Y8	Z8	X9	Y9	Z9	X10	Y10	Z10	X11	Y11	Z11	X12	Y12	Z12	X13	Y13	Z13	X14	Y14	Z14	X15	Y15	Z15	X16	Y16	Z16	X17	Y17	Z17	X18	Y18	Z18	X19	Y19	Z19	X20	Y20	Z20	X21	Y21	Z21	X22	Y22	Z22	X23	Y23	Z23	X24	Y24	Z24	X25	Y25	Z25	X26	Y26	Z26	X27	Y27	Z27	X28	Y28	Z28	X29	Y29	Z29	X30	Y30	Z30	X31	Y31	Z31	X32	Y32	Z32	X33	Y33	Z33	X34	Y34	Z34	X35	Y35	Z35	X36	Y36	Z36	X37	Y37	Z37	X38	Y38	Z38	X39	Y39	Z39	X40	Y40	Z40	X41	Y41	Z41	X42	Y42	Z42	X43	Y43	Z43	X44	Y44	Z44	X45	Y45	Z45	X46	Y46	Z46	X47	Y47	Z47	X48	Y48	Z48	X49	Y49	Z49	X50	Y50	Z50	X51	Y51	Z51	X52	Y52	Z52	X53	Y53	Z53	X54	Y54	Z54	X55	Y55	Z55	X56	Y56	Z56	X57	Y57	Z57	X58	Y58	Z58	X59	Y59	Z59	X60	Y60	Z60	X61	Y61	Z61

544	2.72	453.81	869	404.08	193.44	47.921	-42.539	115.94	123.9	-90.929	389.65	897.9	403.7	289.58	343.68	-13.997	168.4	94.747	-18.532	358.69	394.09	-23.707	222.27	289.6	-5.8304	450.08	907.55	339.28	394.59	530.95	-119.71	332.43	1505.8	259.61	292.26	1360.4	-194.42	336.93	1060.5	-246.33	255.3	1192.7	-243.37	441.81	1305.8	57.02	378.35	894.36	-255.77	463.23	1705.8	150.6	297.5	648.9	245.57	306.02	1542.9	-109.73	369.09	1037.8	-101.31	308.1	932.89	-266.1	357.48	276.1	193.39	319.36	511.17	232.11	213.41	1567.3	89.957	147.75	1075.7	1.0697	376.25	933.74	-200.39	500.93	35.065	102.31	449.41	52.551	93.402	408.49	29.767	192.09	467.67	1713.1	45.733	149.49	1074.7	110.51	440.7	515.34	11.416	310.76	507.8	84.352	378.48	1478.6	58.6	338.28	742.29	266.09	365.7	368.38	141.83	387.55	651.38	-145.14	355.29	282.52	131.93	344.64	197.89	122.49	414.03	754.01	-151.2	226.96	42.112	119.68	332.78	816.59	-159.07	374.48	1052.7	221.56	360.41	733.81	-152.99	390.36	1041.1	375.8	288.99	332.43	-76.752	288.5	73.395	159.67	316.12	105.24	68.594	301.93	1705.5	18.302	292.1	1699.1	159.75	294.82	1163.4	377.13	326.04	1324.8	331.79	280.78	730.63	253.79	164.19	1442	206.78	142.9	232.76	41.817	265.34	817.22	265.31	42.191	273.75	8.7658	164.89	1211.9	57.326	217.74	1165.1	-160.6	89.784	244.21	-47.589	257.4	1135.9	291.21
545	2.725	461.71	870.34	404.36	211.09	47.558	-41.837	132.18	121.96	-90.653	397.4	898.9	404.04	301.62	344	-13.699	184.94	93.894	-18.031	370.05	395.3	-23.312	235.05	289	-5.5232	457.66	908.81	339.54	404.22	532.5	-119.54	337.27	1506.3	259.79	296.13	1360.7	-194.27	340.74	1061	-246.45	258.93	1193	-243.16	446.29	1306	57.324	382.66	895.21	-256.26	468.24	1705.8	150.78	299.51	649.11	245.69	310.42	1543.2	-109.56	373.97	1038.4	-100.63	312.01	933.18	-265.86	357.96	276.01	193.51	320.51	511.19	232.24	218.11	1567.7	90.275	152.32	1076	1.106	380.65	934.34	-200.68	500.98	35.052	102.4	449.45	52.566	93.445	408.49	29.752	192.13	472.64	1713.1	45.909	153.93	1074.9	110.57	450.1	517.62	11.647	312.27	507.92	84.383	383.12	1478.9	58.764	340.91	742.21	266.18	366.56	368.25	141.98	395.67	652.94	-145.02	355.92	282.41	132.05	345.09	197.85	122.65	421.04	755.88	-151.32	226.98	42.173	119.64	339.07	817.53	-158.91	379.21	1053	222.7	367.58	735.07	-152.88	397.33	1042.1	376.08	301.21	332.55	-76.387	288.58	73.478	159.63	316.24	105.27	68.608	306.87	1705.9	18.575	297.1	1699.5	160.04	301.19	1163.9	377.54	331.75	1325.3	331.94	283.36	730.89	253.9	168.98	1442.2	207.15	156.23	231.16	42.161	268.43	817.58	265.49	54.695	270.04	8.7642	169.5	1212.3	57.58	221.77	1165.5	-160.23	103.25	241.45	-47.439	263.79	1136.2	291.63
546	2.73	469.57	871.65	404.62	228.97	47.132	-41.2	148.61	119.84	-90.405	405.12	899.87	404.34	313.65	344.2	-13.391	201.68	92.919	-17.577	381.32	396.44	-22.922	247.91	288.24	-5.238	465.23	910.06	339.8	413.73	534	-119.35	342.11	1506.8	259.96	300	1360.9	-194.12	344.55	1061.4	-246.58	262.56	1193.3	-242.95	450.78	1306.2	57.635	386.96	896.05	-256.78	473.24	1705.9	150.95	301.51	649.31	245.8	314.82	1543.4	-109.39	378.86	1039	-99.94	315.92	933.44	-265.59	358.43	275.94	193.63	321.64	511.22	232.37	222.81	1568	90.581	156.9	1076.2	1.1234	385.07	934.93	-201	501.04	35.043	102.5	449.49	52.579	93.491	408.49	29.736	192.16	477.59	1713.1	46.069	158.37	1075.1	110.6	459.32	519.89	11.902	313.76	508.04	84.404	387.75	1479.1	58.925	343.52	742.13	266.23	367.41	368.12	142.13	403.75	654.51	-144.89	356.54	282.31	132.17	345.54	197.81	122.81	428.04	757.72	-151.38	227	42.237	119.61	345.36	818.46	-158.78	383.89	1053.3	223.78	374.74	736.33	-152.79	404.28	1043	376.35	313.44	332.56	-76.024	288.66	73.559	159.58	316.36	105.29	68.623	311.79	1706.2	18.831	302.08	1699.9	160.32	307.51	1164.3	377.92	337.41	1325.9	332.09	285.92	731.14	254.01	173.76	1442.5	207.5	169.67	229.34	42.478	271.51	817.94	265.66	67.33	266.01	8.7497	174.09	1212.6	57.82	225.79	1165.7	-159.85	116.84	238.45	-47.316	270.17	1136.4	292.02
547	2.735	477.41	872.95	404.86	247.06	46.66	-40.641	165.22	117.59	-90.192	412.81	900.81	404.61	325.67	344.29	-13.076	218.61	91.839	-17.177	392.48	397.5	-22.545	260.86	287.32	-4.9765	472.8	911.31	340.05	423.13	535.45	-119.14	346.93	1507.3	260.12	303.88	1361.1	-193.96	348.35	1061.8	-246.71	266.18	1193.6	-242.73	455.27	1306.4	57.951	391.26	896.87	-257.31	478.22	1705.9	151.1	303.5	649.52	245.91	319.22	1543.6	-109.24	383.76	1039.5	-99.255	319.82	933.67	-265.3	358.89	275.86	193.74	322.75	511.25	232.5	227.5	1568.4	90.873	161.48	1076.4	1.1233	389.52	935.51	-201.34	501.1	35.038	102.6	449.53	52.592	93.539	408.49	29.72	192.2	482.53	1713.1	46.214	162.81	1075.3	110.6	468.35	522.13	12.181	315.25	508.16	84.413	392.38	1479.4	59.082	346.13	742.05	266.25	368.25	367.99	142.26	411.79	656.06	-144.77	357.16	282.21	132.28	345.99	197.77	122.97	435.02	759.53	-151.4	227.02	42.304	119.58	351.67	819.4	-158.66	388.51	1053.6	224.79	381.9	737.58	-152.71	411.2	1043.9	376.61	325.68	332.48	-75.666	288.74	73.637	159.52	316.48	105.33	68.64	316.69	1706.5	19.068	307.05	1700.2	160.57	313.79	1164.7	378.28	343.04	1326.4	332.24	288.47	731.4	254.11	178.53	1442.7	207.83	183.23	227.31	42.764	274.58	818.29	265.82	80.1	261.67	8.7207	178.66	1212.9	58.046	229.82	1166	-159.47	130.54	235.2	-47.22	276.54	1136.6	292.38
